<svg width="61" height="47" viewBox="0 0 61 47" fill="none" xmlns="http://www.w3.org/2000/svg">
<path d="M29.4187 12.193L10.0741 28.1255V45.3212C10.0741 45.7665 10.251 46.1935 10.5658 46.5083C10.8806 46.8231 11.3076 47 11.7529 47L23.5105 46.9696C23.9543 46.9674 24.3791 46.7895 24.6921 46.4749C25.0051 46.1603 25.1809 45.7346 25.1809 45.2908V35.2487C25.1809 34.8035 25.3577 34.3765 25.6726 34.0616C25.9874 33.7468 26.4144 33.5699 26.8596 33.5699H33.5746C34.0199 33.5699 34.4469 33.7468 34.7617 34.0616C35.0765 34.3765 35.2534 34.8035 35.2534 35.2487V45.2835C35.2527 45.5044 35.2956 45.7232 35.3797 45.9275C35.4637 46.1318 35.5873 46.3175 35.7432 46.4739C35.8992 46.6304 36.0845 46.7545 36.2885 46.8392C36.4925 46.9239 36.7113 46.9675 36.9322 46.9675L48.6856 47C49.1308 47 49.5578 46.8231 49.8726 46.5083C50.1875 46.1935 50.3643 45.7665 50.3643 45.3212V28.114L31.024 12.193C30.7966 12.0098 30.5134 11.9098 30.2213 11.9098C29.9293 11.9098 29.646 12.0098 29.4187 12.193ZM59.9752 23.0221L51.2037 15.7919V1.25907C51.2037 0.925143 51.0711 0.604894 50.8349 0.368773C50.5988 0.132652 50.2786 0 49.9446 0H44.069C43.7351 0 43.4148 0.132652 43.1787 0.368773C42.9426 0.604894 42.8099 0.925143 42.8099 1.25907V8.87749L33.4162 1.1489C32.5147 0.407077 31.3835 0.00148292 30.2161 0.00148292C29.0486 0.00148292 27.9174 0.407077 27.0159 1.1489L0.456936 23.0221C0.329442 23.1275 0.223961 23.2569 0.14652 23.4031C0.0690787 23.5492 0.0211951 23.7092 0.00560512 23.8739C-0.00998489 24.0386 0.0070242 24.2047 0.0556605 24.3628C0.104297 24.5209 0.183607 24.6678 0.28906 24.7953L2.96458 28.0479C3.06975 28.1757 3.1991 28.2816 3.34524 28.3594C3.49137 28.4373 3.65143 28.4855 3.81623 28.5014C3.98103 28.5173 4.14735 28.5005 4.30566 28.452C4.46397 28.4035 4.61117 28.3243 4.73882 28.2189L29.4187 7.89122C29.646 7.70794 29.9293 7.608 30.2213 7.608C30.5134 7.608 30.7966 7.70794 31.024 7.89122L55.7049 28.2189C55.8323 28.3243 55.9793 28.4036 56.1374 28.4523C56.2955 28.5009 56.4616 28.5179 56.6263 28.5023C56.7909 28.4868 56.9509 28.4389 57.0971 28.3614C57.2432 28.284 57.3727 28.1785 57.4781 28.051L60.1536 24.7984C60.2589 24.6702 60.3379 24.5225 60.386 24.3637C60.434 24.205 60.4502 24.0382 60.4337 23.8732C60.4171 23.7081 60.3681 23.5479 60.2894 23.4019C60.2107 23.2558 60.1039 23.1267 59.9752 23.0221Z" fill="white"/>
</svg>
